{"title":"Geordie Shore S11E02 1080P AAC2 0 H 264","uid":12643140,"size":1563368798,"categoryP":"video","categoryS":"hd___tv_shows","magnet":"?xt=urn:btih:c432d1153525f43c1ee78f4569138a711de656c4&amp;dn=+Geordie+Shore+S11E02+1080P+AAC2+0+H+264&amp;tr=udp%3A%2F%2Ftracker.leechers-paradise.org%3A6969&amp;tr=udp%3A%2F%2Fzer0day.ch%3A1337&amp;tr=udp%3A%2F%2Fopen.demonii.com%3A1337&amp;tr=udp%3A%2F%2Ftracker.coppersurfer.tk%3A6969&amp;tr=udp%3A%2F%2Fexodus.desync.com%3A6969","seeders":0,"leechers":2,"uploader":"jmanwf","files":1,"time":1446028507,"description":"Big boss Anna sends the guys to their new home in Crete. Chloe wants to know where she stands with Scott. Charlotte and Marnie have some explaining to do after their first night in Malia.\r\n\r\n\r\n\r\nVideo\r\nID : 2\r\nFormat : AVC\r\nFormat/Info : Advanced Video Codec\r\nFormat profile :   \r\nFormat settings, CABAC : Yes\r\nFormat settings, ReFrames : 4 frames\r\nCodec ID : avc1\r\nCodec ID/Info : Advanced Video Coding\r\nDuration : 42mn 2s\r\nBit rate : 4 828 Kbps\r\nWidth : 1 920 pixels\r\nHeight : 1 080 pixels\r\nDisplay aspect ratio : 16:9\r\nFrame rate mode : Constant\r\nFrame rate : 25.000 fps\r\nColor space : YUV\r\nChroma subsampling : 4:2:0\r\nBit depth : 8 bits\r\nScan type : Progressive\r\nBits/(Pixel*Frame) : 0.093\r\nStream size : 1.42 GiB (97%)\r\nLanguage : English\r\nEncoded date : UTC 2015-10-28 04:23:39\r\nTagged date : UTC 2015-10-28 04:34:05\r\nColor range : Limited\r\nColor primaries : BT.709\r\nTransfer characteristics : BT.709\r\nMatrix coefficients : BT.709\r\n\r\nAudio\r\nID : 1\r\nFormat : AAC\r\nFormat/Info : Advanced Audio Codec\r\nFormat profile : LC\r\nCodec ID : 40\r\nDuration : 42mn 2s\r\nBit rate mode : Variable\r\nBit rate : 126 Kbps\r\nMaximum bit rate : 204 Kbps\r\nChannel(s) : 2 channels\r\nChannel positions : Front: L R\r\nSampling rate : 48.0 KHz\r\nCompression mode : Lossy\r\nStream size : 37.8 MiB (3%)\r\nLanguage : English\r\nEncoded date : UTC 2015-10-28 04:23:38\r\nTagged date : UTC 2015-10-28 04:34:06\r\n\r\n\r\n\r\n\r\n \nhttps://itunes.apple.com/gb/tv-season/1101/id1044567921?i=1047054891&amp;ign-mpt=uo%3D2","torrent":{"xt":"urn:btih:c432d1153525f43c1ee78f4569138a711de656c4","amp;dn":"+Geordie+Shore+S11E02+1080P+AAC2+0+H+264","amp;tr":["udp%3A%2F%2Ftracker.leechers-paradise.org%3A6969","udp%3A%2F%2Fzer0day.ch%3A1337","udp%3A%2F%2Fopen.demonii.com%3A1337","udp%3A%2F%2Ftracker.coppersurfer.tk%3A6969","udp%3A%2F%2Fexodus.desync.com%3A6969"],"infoHash":"c432d1153525f43c1ee78f4569138a711de656c4","infoHashBuffer":{"type":"Buffer","data":[196,50,209,21,53,37,244,60,30,231,143,69,105,19,138,113,29,230,86,196]},"announce":[],"urlList":[]}}